<svg width="1600" height="1000" viewBox="0 0 1600 1000" fill="none" xmlns="http://www.w3.org/2000/svg">
  <defs>
    <linearGradient id="bg1" x1="120" y1="40" x2="1500" y2="980" gradientUnits="userSpaceOnUse">
      <stop stop-color="#F2F8FF"/>
      <stop offset="0.58" stop-color="#E8F6F2"/>
      <stop offset="1" stop-color="#F9F3EA"/>
    </linearGradient>
    <linearGradient id="hero1" x1="330" y1="96" x2="1518" y2="320" gradientUnits="userSpaceOnUse">
      <stop stop-color="#0C3C78"/>
      <stop offset="1" stop-color="#0F766E"/>
    </linearGradient>
    <filter id="shadow" x="0" y="0" width="2000" height="1400" filterUnits="userSpaceOnUse" color-interpolation-filters="sRGB">
      <feDropShadow dx="0" dy="10" stdDeviation="16" flood-color="#0F172A" flood-opacity="0.12"/>
    </filter>
    <style>
      .title { font: 700 28px "Avenir Next", "PingFang SC", sans-serif; fill: #06223F; }
      .text { font: 500 16px "Avenir Next", "PingFang SC", sans-serif; fill: #19324D; }
      .muted { font: 500 13px "Avenir Next", "PingFang SC", sans-serif; fill: #5B728B; }
      .chip { font: 600 13px "Avenir Next", "PingFang SC", sans-serif; }
      .cardTitle { font: 700 18px "Avenir Next", "PingFang SC", sans-serif; fill: #0B2A47; }
      .metric { font: 700 24px "Avenir Next", "PingFang SC", sans-serif; fill: #0A3A63; }
    </style>
  </defs>

  <rect width="1600" height="1000" fill="url(#bg1)"/>

  <rect x="24" y="24" width="280" height="952" rx="28" fill="#0B2540" filter="url(#shadow)"/>
  <text x="64" y="92" fill="#E9F2FF" font-family="Avenir Next, PingFang SC, sans-serif" font-size="30" font-weight="700">OpenStaff</text>
  <text x="64" y="122" fill="#9EC1E8" font-family="Avenir Next, PingFang SC, sans-serif" font-size="14">Teacher-Student Assistant</text>

  <rect x="52" y="170" width="224" height="56" rx="14" fill="#123860"/>
  <text x="74" y="204" fill="#F8FBFF" font-family="Avenir Next, PingFang SC, sans-serif" font-size="17" font-weight="600">系统总览</text>

  <rect x="52" y="238" width="224" height="56" rx="14" fill="#0E2E50"/>
  <text x="74" y="272" fill="#B7CDE4" font-family="Avenir Next, PingFang SC, sans-serif" font-size="17" font-weight="500">教学模式</text>

  <rect x="52" y="306" width="224" height="56" rx="14" fill="#0E2E50"/>
  <text x="74" y="340" fill="#B7CDE4" font-family="Avenir Next, PingFang SC, sans-serif" font-size="17" font-weight="500">辅助模式</text>

  <rect x="52" y="374" width="224" height="56" rx="14" fill="#0E2E50"/>
  <text x="74" y="408" fill="#B7CDE4" font-family="Avenir Next, PingFang SC, sans-serif" font-size="17" font-weight="500">学生模式</text>

  <rect x="52" y="472" width="224" height="150" rx="16" fill="#103255"/>
  <text x="72" y="506" fill="#A9C8E8" font-family="Avenir Next, PingFang SC, sans-serif" font-size="13">紧急停止</text>
  <text x="72" y="538" fill="#FEE2E2" font-family="Avenir Next, PingFang SC, sans-serif" font-size="24" font-weight="700">Cmd + Shift + .</text>
  <text x="72" y="566" fill="#F8FAFC" font-family="Avenir Next, PingFang SC, sans-serif" font-size="14">任何模式下立即中断执行</text>
  <rect x="72" y="584" width="184" height="24" rx="12" fill="#7F1D1D"/>
  <text x="96" y="600" fill="#FEE2E2" font-family="Avenir Next, PingFang SC, sans-serif" font-size="12" font-weight="600">安全层已接管执行权限</text>

  <text x="52" y="940" fill="#84A6CA" font-family="Avenir Next, PingFang SC, sans-serif" font-size="12">v1 目标 UI 设计图</text>

  <rect x="330" y="24" width="1246" height="180" rx="30" fill="url(#hero1)" filter="url(#shadow)"/>
  <text x="372" y="82" fill="#E7F6FF" font-family="Avenir Next, PingFang SC, sans-serif" font-size="16" font-weight="500">系统控制台</text>
  <text x="372" y="126" fill="#FFFFFF" font-family="Avenir Next, PingFang SC, sans-serif" font-size="38" font-weight="700">老师主导，学生协同，安全闭环</text>
  <text x="372" y="160" fill="#C9E7FF" font-family="Avenir Next, PingFang SC, sans-serif" font-size="15">覆盖：模式切换、权限状态、最近任务、学习记录、执行审阅与反馈</text>

  <rect x="1230" y="56" width="114" height="36" rx="18" fill="#DBEAFE"/>
  <text x="1259" y="79" fill="#1D4ED8" class="chip">教学</text>
  <rect x="1354" y="56" width="114" height="36" rx="18" fill="#CCFBF1"/>
  <text x="1383" y="79" fill="#0F766E" class="chip">辅助</text>
  <rect x="1478" y="56" width="82" height="36" rx="18" fill="#FEF3C7"/>
  <text x="1500" y="79" fill="#92400E" class="chip">学生</text>

  <rect x="330" y="226" width="400" height="232" rx="22" fill="#FFFFFF" filter="url(#shadow)"/>
  <text x="360" y="266" class="cardTitle">运行状态</text>
  <text x="360" y="292" class="muted">当前模式：教学模式</text>
  <text x="360" y="326" class="metric">CAP-READY</text>
  <text x="360" y="352" class="muted">状态码 / 守卫满足：4 / 5</text>
  <rect x="360" y="374" width="340" height="12" rx="6" fill="#E2E8F0"/>
  <rect x="360" y="374" width="276" height="12" rx="6" fill="#22C55E"/>
  <rect x="360" y="406" width="160" height="34" rx="10" fill="#0EA5E9"/>
  <text x="402" y="428" fill="#EFF9FF" font-family="Avenir Next, PingFang SC, sans-serif" font-size="14" font-weight="600">刷新状态</text>
  <rect x="540" y="406" width="160" height="34" rx="10" fill="#B91C1C"/>
  <text x="581" y="428" fill="#FEE2E2" font-family="Avenir Next, PingFang SC, sans-serif" font-size="14" font-weight="600">紧急停止</text>

  <rect x="748" y="226" width="400" height="232" rx="22" fill="#FFFFFF" filter="url(#shadow)"/>
  <text x="778" y="266" class="cardTitle">权限状态</text>
  <rect x="778" y="290" width="340" height="54" rx="12" fill="#F0FDF4"/>
  <circle cx="806" cy="317" r="7" fill="#16A34A"/>
  <text x="824" y="322" class="text">辅助功能权限：已授权</text>
  <rect x="778" y="356" width="340" height="54" rx="12" fill="#EFF6FF"/>
  <circle cx="806" cy="383" r="7" fill="#2563EB"/>
  <text x="824" y="388" class="text">数据目录可写：正常</text>
  <text x="778" y="434" class="muted">最近刷新：2026-03-09 10:32:16</text>

  <rect x="1166" y="226" width="410" height="232" rx="22" fill="#FFFFFF" filter="url(#shadow)"/>
  <text x="1196" y="266" class="cardTitle">最近任务</text>
  <rect x="1196" y="286" width="350" height="44" rx="10" fill="#EEF2FF"/>
  <text x="1214" y="313" class="text">教学 · task-20260309-a1 · CAPTURE_FINISHED</text>
  <rect x="1196" y="338" width="350" height="44" rx="10" fill="#ECFEFF"/>
  <text x="1214" y="365" class="text">辅助 · task-20260309-a2 · ASSIST_CONFIRMED</text>
  <rect x="1196" y="390" width="350" height="44" rx="10" fill="#FFF7ED"/>
  <text x="1214" y="417" class="text">学生 · task-20260309-a3 · REVIEW_READY</text>

  <rect x="330" y="480" width="620" height="476" rx="22" fill="#FFFFFF" filter="url(#shadow)"/>
  <text x="360" y="520" class="cardTitle">学习记录与知识浏览</text>
  <rect x="360" y="542" width="180" height="382" rx="14" fill="#F8FAFC"/>
  <text x="382" y="570" class="muted">会话列表</text>
  <rect x="374" y="584" width="152" height="72" rx="10" fill="#DBEAFE"/>
  <text x="388" y="614" class="text">session-20260309-a1</text>
  <text x="388" y="634" class="muted">任务 3 · 知识 2</text>
  <rect x="374" y="666" width="152" height="72" rx="10" fill="#F1F5F9"/>
  <text x="388" y="696" class="text">session-20260308-b7</text>
  <text x="388" y="716" class="muted">任务 6 · 知识 6</text>

  <rect x="554" y="542" width="366" height="382" rx="14" fill="#F8FAFC"/>
  <text x="576" y="570" class="muted">任务详情与知识条目</text>
  <text x="576" y="608" class="text">任务 ID：task-session-20260309-a1-001</text>
  <text x="576" y="636" class="text">目标：在 Safari 中复现点击流程</text>
  <text x="576" y="664" class="text">摘要：打开标签页 -> 点击目标按钮</text>
  <text x="576" y="704" class="muted">关键约束</text>
  <text x="576" y="730" class="text">• 前台应用必须为 Safari</text>
  <text x="576" y="756" class="text">• 坐标漂移需二次确认</text>
  <text x="576" y="782" class="text">• 高风险动作禁止自动执行</text>
  <text x="576" y="824" class="muted">步骤</text>
  <text x="576" y="850" class="text">1. 聚焦标签页区域</text>
  <text x="576" y="876" class="text">2. 点击已学习目标按钮</text>

  <rect x="970" y="480" width="606" height="476" rx="22" fill="#FFFFFF" filter="url(#shadow)"/>
  <text x="1000" y="520" class="cardTitle">审阅与反馈</text>
  <rect x="1000" y="546" width="240" height="380" rx="14" fill="#F8FAFC"/>
  <text x="1022" y="574" class="muted">执行日志</text>
  <rect x="1014" y="588" width="212" height="78" rx="10" fill="#ECFEFF"/>
  <text x="1030" y="616" class="text">辅助 · ASSIST_EXECUTED</text>
  <text x="1030" y="638" class="muted">10:24:06 · session-a1</text>
  <rect x="1014" y="676" width="212" height="78" rx="10" fill="#FFF7ED"/>
  <text x="1030" y="704" class="text">学生 · STUDENT_DONE</text>
  <text x="1030" y="726" class="muted">10:27:33 · session-a1</text>

  <rect x="1256" y="546" width="290" height="380" rx="14" fill="#F8FAFC"/>
  <text x="1278" y="574" class="muted">日志详情与老师反馈</text>
  <text x="1278" y="610" class="text">状态码：EXECUTION_SUCCESS</text>
  <text x="1278" y="638" class="text">组件：StudentSkillExecutor</text>
  <text x="1278" y="666" class="text">最新反馈：修正</text>
  <rect x="1278" y="694" width="246" height="90" rx="10" fill="#FFFFFF"/>
  <text x="1292" y="724" class="muted">反馈备注</text>
  <text x="1292" y="748" class="text">建议增加“页面加载完成”检查</text>
  <rect x="1278" y="802" width="72" height="34" rx="10" fill="#16A34A"/>
  <text x="1304" y="824" fill="#F0FDF4" font-family="Avenir Next, PingFang SC, sans-serif" font-size="13" font-weight="600">通过</text>
  <rect x="1360" y="802" width="72" height="34" rx="10" fill="#B91C1C"/>
  <text x="1386" y="824" fill="#FEE2E2" font-family="Avenir Next, PingFang SC, sans-serif" font-size="13" font-weight="600">驳回</text>
  <rect x="1442" y="802" width="82" height="34" rx="10" fill="#0F766E"/>
  <text x="1470" y="824" fill="#CCFBF1" font-family="Avenir Next, PingFang SC, sans-serif" font-size="13" font-weight="600">修正</text>
</svg>
